<svg xmlns="http://www.w3.org/2000/svg" width="22.495" height="22.5" viewBox="0 0 22.495 22.5">
  <path id="Icon_awesome-globe" data-name="Icon awesome-globe" d="M15.265,7.458c-.658-4.051-2.209-6.9-4.015-6.9s-3.357,2.844-4.015,6.9ZM6.9,11.812a28.433,28.433,0,0,0,.15,2.9h8.406a28.433,28.433,0,0,0,.15-2.9,28.433,28.433,0,0,0-.15-2.9H7.045A28.433,28.433,0,0,0,6.9,11.812ZM21.624,7.458a11.274,11.274,0,0,0-7.167-6.423,15.31,15.31,0,0,1,2.268,6.423ZM8.038,1.034A11.266,11.266,0,0,0,.876,7.458h4.9A15.248,15.248,0,0,1,8.038,1.034ZM22.11,8.909h-5.2c.1.953.15,1.928.15,2.9s-.054,1.951-.15,2.9h5.2a11.153,11.153,0,0,0,.39-2.9A11.348,11.348,0,0,0,22.11,8.909Zm-16.666,2.9c0-.975.054-1.951.15-2.9H.39a11,11,0,0,0,0,5.806h5.2C5.5,13.763,5.444,12.788,5.444,11.812Zm1.792,4.355c.658,4.051,2.209,6.9,4.015,6.9s3.357-2.844,4.015-6.9Zm7.226,6.423a11.285,11.285,0,0,0,7.167-6.423h-4.9a15.31,15.31,0,0,1-2.268,6.423ZM.876,16.167a11.274,11.274,0,0,0,7.167,6.423,15.31,15.31,0,0,1-2.268-6.423H.876Z" transform="translate(0 -0.563)"/>
</svg>
