<svg xmlns="http://www.w3.org/2000/svg" width="16.303" height="18.632" viewBox="0 0 16.303 18.632">
  <path id="Icon_awesome-calendar-alt" data-name="Icon awesome-calendar-alt" d="M0,16.885a1.747,1.747,0,0,0,1.747,1.747H14.556A1.747,1.747,0,0,0,16.3,16.885v-9.9H0ZM11.645,9.753a.438.438,0,0,1,.437-.437h1.456a.438.438,0,0,1,.437.437v1.456a.438.438,0,0,1-.437.437H12.082a.438.438,0,0,1-.437-.437Zm0,4.658a.438.438,0,0,1,.437-.437h1.456a.438.438,0,0,1,.437.437v1.456a.438.438,0,0,1-.437.437H12.082a.438.438,0,0,1-.437-.437ZM6.987,9.753a.438.438,0,0,1,.437-.437H8.879a.438.438,0,0,1,.437.437v1.456a.438.438,0,0,1-.437.437H7.424a.438.438,0,0,1-.437-.437Zm0,4.658a.438.438,0,0,1,.437-.437H8.879a.438.438,0,0,1,.437.437v1.456a.438.438,0,0,1-.437.437H7.424a.438.438,0,0,1-.437-.437ZM2.329,9.753a.438.438,0,0,1,.437-.437H4.221a.438.438,0,0,1,.437.437v1.456a.438.438,0,0,1-.437.437H2.766a.438.438,0,0,1-.437-.437Zm0,4.658a.438.438,0,0,1,.437-.437H4.221a.438.438,0,0,1,.437.437v1.456a.438.438,0,0,1-.437.437H2.766a.438.438,0,0,1-.437-.437ZM14.556,2.329H12.809V.582A.584.584,0,0,0,12.227,0H11.063a.584.584,0,0,0-.582.582V2.329H5.822V.582A.584.584,0,0,0,5.24,0H4.076a.584.584,0,0,0-.582.582V2.329H1.747A1.747,1.747,0,0,0,0,4.076V5.822H16.3V4.076A1.747,1.747,0,0,0,14.556,2.329Z"/>
</svg>
