<svg xmlns="http://www.w3.org/2000/svg" width="25.162" height="24.215" viewBox="0 0 25.162 24.215">
  <path id="Icon_open-magnifying-glass" data-name="Icon open-magnifying-glass" d="M10.91-.015A10.722,10.722,0,0,0,0,10.484a10.722,10.722,0,0,0,10.91,10.5,11.121,11.121,0,0,0,5.174-1.23,3.061,3.061,0,0,0,.405.39l3.117,3a3.257,3.257,0,0,0,3.139.938,3.122,3.122,0,0,0,2.324-2.237,2.989,2.989,0,0,0-.975-3.021l-3.117-3a3.1,3.1,0,0,0-.5-.39,10.058,10.058,0,0,0,1.372-4.98,10.722,10.722,0,0,0-10.91-10.5Zm0,3a7.614,7.614,0,0,1,7.793,7.5,7.366,7.366,0,0,1-2.057,5.16l-.094.09a3.061,3.061,0,0,0-.405.39,7.979,7.979,0,0,1-5.268,1.89,7.614,7.614,0,0,1-7.793-7.5,7.614,7.614,0,0,1,7.793-7.5Z" transform="translate(0 0.045)"/>
</svg>
