<svg xmlns="http://www.w3.org/2000/svg" width="16.117" height="19.087" viewBox="0 0 16.117 19.087">
  <path id="Icon_zocial-guest" data-name="Icon zocial-guest" d="M4.7,18.275a5.412,5.412,0,0,1,.254-1.358,8.08,8.08,0,0,1,1.834-3.351A7.972,7.972,0,0,1,9.92,11.382,4.178,4.178,0,0,1,8.244,7.968a4.131,4.131,0,0,1,1.325-3.1,4.533,4.533,0,0,1,6.3,0,4.131,4.131,0,0,1,1.325,3.1,4.2,4.2,0,0,1-1.633,3.393,8.3,8.3,0,0,1,3.753,2.693,6.566,6.566,0,0,1,1.506,4.2q0,1.951-1.548,2.249a2.427,2.427,0,0,1-.276.551,1.324,1.324,0,0,1-.5.6,3.149,3.149,0,0,1-1.029.435c-.439.113-.788.2-1.05.254s-.661.121-1.2.192-.813.106-.827.106a.9.9,0,0,0-.148.021.958.958,0,0,1-.147.023H11.552a13.775,13.775,0,0,1-2.735-.351q-1.654-.349-1.887-.944A2.182,2.182,0,0,1,6.4,20.5a1.777,1.777,0,0,1-.891-.445Q4.7,19.738,4.7,18.275Z" transform="translate(-4.703 -3.599)"/>
</svg>
